HIERARCHY
ROOT Hips
{
	OFFSET	0.000000	0.000000	0.000000
	CHANNELS 6 Xposition Yposition Zposition Zrotation Xrotation Yrotation
	JOINT LeftHip
	{
		OFFSET	4.740440	-3.195970	-0.322709
		CHANNELS 3 Zrotation Xrotation Yrotation
		JOINT LeftKnee
		{
			OFFSET	-1.605680	-15.592300	1.005510
			CHANNELS 3 Zrotation Xrotation Yrotation
			JOINT LeftAnkle
			{
				OFFSET	-0.632401	-16.421000	-1.413730
				CHANNELS 3 Zrotation Xrotation Yrotation
				End Site
				{
					OFFSET	0.008423	-2.933000	-1.776750
				}
			}
		}
	}
	JOINT RightHip
	{
		OFFSET	-4.740440	-3.195970	-0.322709
		CHANNELS 3 Zrotation Xrotation Yrotation
		JOINT RightKnee
		{
			OFFSET	1.605680	-15.592300	1.005510
			CHANNELS 3 Zrotation Xrotation Yrotation
			JOINT RightAnkle
			{
				OFFSET	0.632401	-16.421000	-1.413730
				CHANNELS 3 Zrotation Xrotation Yrotation
				End Site
				{
					OFFSET	-0.008423	-2.933000	-1.776750
				}
			}
		}
	}
	JOINT Chest
	{
		OFFSET	0.000000	3.468200	0.078401
		CHANNELS 3 Zrotation Xrotation Yrotation
		JOINT LeftCollar
		{
			OFFSET	3.857650	15.070700	-0.011583
			CHANNELS 3 Zrotation Xrotation Yrotation
			JOINT LeftShoulder
			{
				OFFSET	3.979720	-1.940530	-0.165223
				CHANNELS 3 Zrotation Xrotation Yrotation
				JOINT LeftElbow
				{
					OFFSET	0.615844	-10.986600	-0.673886
					CHANNELS 3 Zrotation Xrotation Yrotation
					JOINT LeftWrist
					{
						OFFSET	0.826843	-10.854500	1.034220
						CHANNELS 3 Zrotation Xrotation Yrotation
						End Site
						{
							OFFSET	-1.679080	-8.456540	0.936217
						}
					}
				}
			}
		}
		JOINT RightCollar
		{
			OFFSET	-3.857650	15.070700	-0.011583
			CHANNELS 3 Zrotation Xrotation Yrotation
			JOINT RightShoulder
			{
				OFFSET	-3.979720	-1.940530	-0.165223
				CHANNELS 3 Zrotation Xrotation Yrotation
				JOINT RightElbow
				{
					OFFSET	-0.615845	-10.986600	-0.673886
					CHANNELS 3 Zrotation Xrotation Yrotation
					JOINT RightWrist
					{
						OFFSET	-0.826843	-10.854500	1.034220
						CHANNELS 3 Zrotation Xrotation Yrotation
						End Site
						{
							OFFSET	1.679080	-8.456540	0.936217
						}
					}
				}
			}
		}
		JOINT Neck
		{
			OFFSET	0.000000	15.101400	0.055730
			CHANNELS 3 Zrotation Xrotation Yrotation
			JOINT Head
			{
				OFFSET	0.000000	4.185120	1.488260
				CHANNELS 3 Zrotation Xrotation Yrotation
				End Site
				{
					OFFSET	0.000000	7.773420	-0.106016
				}
			}
		}
	}
}
MOTION
Frames:     21
Frame Time: 0.016667
12.306240	38.033897	-2.879471	-10.456779	3.013561	39.549480	3.184452	-15.811302	-4.577126	0.843951	12.439574	-23.963051	4.121376	-3.858128	-3.823521	-8.458385	8.114590	-0.644561	2.374775	6.765597	-6.258406	10.847594	9.552379	13.426482	-0.562340	15.808539	13.007118	-4.267613	-3.431891	19.742760	23.891684	9.679320	14.471689	16.187143	-6.585519	14.235071	21.582506	16.482784	-9.473129	-19.083717	-19.223518	33.418171	-3.556870	-59.289894	9.180531	-26.290009	-15.213123	4.317119	-24.238335	-12.364108	43.996563	-7.639814	-22.538540	-11.850711	18.414843	8.561701	-56.378788	
12.435481	38.051979	-2.755321	-10.408337	3.034817	39.346600	3.143306	-15.308682	-4.509364	0.828121	12.172010	-23.854126	4.224034	-3.906895	-3.754526	-8.642050	8.032359	-0.404821	2.557487	7.370078	-5.772970	10.615139	9.485045	12.936145	-0.779902	15.059124	13.189384	-3.987800	-3.146431	20.191919	23.640610	10.271467	14.225642	16.446165	-6.215350	14.884161	21.911922	19.426977	-8.114225	-18.714462	-18.504047	34.088585	-0.897607	-58.780922	12.653099	-24.864944	-13.344967	5.584118	-20.670582	-8.499763	44.734413	-7.538120	-22.385479	-11.780047	18.634560	9.071350	-56.811535	
12.636427	38.049446	-2.586325	-10.335782	2.995147	38.871555	3.190271	-14.695595	-4.212809	0.622925	12.229031	-23.735060	4.699201	-4.255864	-3.445026	-8.933451	8.009116	-0.294400	2.769840	7.901434	-5.000165	9.672697	10.608671	12.405801	-1.348083	12.679086	13.777100	-3.057668	-2.048198	21.221901	22.946491	12.512566	12.303367	16.474691	-5.820324	15.739459	22.115530	19.302284	-7.110994	-17.281048	-15.468917	36.322655	4.200031	-56.662601	21.387136	-21.856146	-9.328240	7.791913	-8.138940	3.068888	46.140724	-7.134004	-22.086935	-12.063051	18.881939	9.927597	-57.509140	
12.711545	38.056084	-2.514002	-10.287580	2.874535	38.812374	3.218303	-14.306884	-4.246219	0.560749	12.138889	-23.623562	4.874096	-4.358045	-3.260405	-8.964073	8.119993	-0.442507	2.838599	8.117921	-4.762004	9.406994	10.878633	12.272532	-1.415124	11.977068	13.872975	-3.037998	-2.116180	21.908634	23.209005	13.476086	11.086921	16.220358	-5.926389	15.455280	22.220062	19.066624	-6.888124	-16.920250	-14.299114	36.876606	6.136057	-55.995491	23.661015	-21.079536	-8.501159	8.457404	-4.333884	6.081522	45.397987	-6.949509	-21.680153	-11.993289	18.835899	9.621496	-57.696789	
12.936490	38.069355	-2.337732	-10.101420	2.366873	38.814564	3.269172	-13.079884	-4.628747	0.356609	11.882515	-22.914803	5.468786	-4.679392	-2.868380	-9.183640	8.691917	-0.992624	3.263479	8.643859	-4.847309	8.896881	11.636831	12.213367	-1.358944	10.234951	13.723304	-2.551471	-0.505896	22.618681	21.603401	15.002514	9.934645	15.185567	-6.498189	13.233785	22.665836	17.051468	-6.735805	-16.326963	-11.226274	37.344627	13.082955	-53.460499	27.947060	-18.274368	-7.788480	12.599821	1.219640	13.471946	38.569084	-6.329381	-21.284178	-11.271427	18.175169	9.081770	-58.593037	
13.010950	38.075764	-2.308822	-10.076386	2.119291	38.801998	3.307779	-12.663565	-4.749503	0.368322	11.789529	-22.692066	5.656392	-4.784140	-2.777184	-9.253593	8.912016	-1.152050	3.498609	8.845895	-5.081500	8.791041	11.858956	12.260965	-1.411521	9.059781	13.538004	-2.124428	0.128287	23.147886	21.161604	15.749255	9.408508	14.787522	-6.792287	12.269986	22.801464	16.293245	-6.808644	-15.722976	-9.764987	37.574333	14.896949	-52.299603	28.334373	-17.209246	-8.331699	15.029584	3.739610	17.803457	36.843132	-5.824275	-21.228325	-10.966819	17.862192	9.625801	-58.976540	
13.237831	38.099106	-2.232058	-10.014437	1.336587	38.796860	3.456852	-11.449891	-4.961713	0.501153	11.550093	-22.502363	6.018864	-5.050993	-2.593245	-9.365670	9.417242	-1.783405	4.078246	9.751852	-6.006227	8.829391	12.487222	12.259275	-1.284226	8.395050	13.350875	-1.735829	0.601275	23.478266	18.738428	17.057957	8.806776	13.422107	-8.069290	9.760065	22.660053	14.603899	-7.238967	-14.885530	-8.043138	36.681141	17.352757	-47.967628	29.287985	-14.697468	-11.544683	21.523006	2.983396	20.867714	33.927849	-5.249260	-20.521479	-11.179378	17.067890	8.650399	-59.149540	
13.287816	38.109695	-2.207597	-9.970673	1.106719	38.773872	3.546180	-11.089444	-5.002027	0.478441	11.466530	-22.528349	6.095858	-5.085191	-2.505414	-9.410829	9.491670	-2.012182	4.214053	10.198579	-6.232296	8.947145	12.643791	12.135049	-1.314963	8.029920	13.233373	-1.913440	0.510067	23.410469	18.257711	17.664938	8.645980	12.960589	-8.469155	9.237344	22.347013	14.247734	-7.366896	-14.638909	-7.270700	34.833813	18.879980	-46.187778	31.807890	-13.908867	-12.835635	22.829659	2.908059	21.560040	33.449394	-5.066809	-20.337351	-11.324211	16.837648	8.615476	-59.293213	
13.421849	38.122398	-2.165073	-9.562198	0.371696	38.608582	3.658681	-9.899282	-5.276936	0.255856	11.349613	-22.341171	6.415251	-5.204085	-2.242532	-9.621848	9.441986	-2.576158	4.540779	12.082203	-6.263058	9.041821	12.994503	11.260282	-1.546220	7.410246	12.822484	-1.711451	1.271445	23.479666	15.130280	18.223127	7.630286	11.801392	-9.316697	8.623164	20.537064	13.716770	-7.333630	-14.066583	-6.298833	33.855125	17.223200	-41.921829	31.457771	-11.148087	-16.679577	25.556328	0.434767	21.292212	32.499500	-4.726811	-19.571804	-13.114533	16.199137	8.903571	-58.911087	
13.451276	38.122349	-2.162807	-9.358043	0.147520	38.492744	3.640341	-9.506291	-5.324731	0.180766	11.331612	-22.200859	6.486000	-5.237365	-2.213348	-9.684145	9.265574	-2.696903	4.572003	12.922922	-6.191428	8.920207	13.059175	10.977859	-1.653632	6.791152	12.332301	-1.921334	1.483750	23.181164	14.249460	18.743454	7.700454	11.511861	-9.457982	8.681214	19.700487	13.671299	-7.144380	-13.958164	-6.106219	32.408978	17.923237	-39.997021	32.807697	-9.978128	-17.713972	26.120705	-1.835952	20.258642	32.634369	-4.751944	-18.548002	-14.398363	16.230375	9.146203	-57.931335	
13.535109	38.121906	-2.204737	-8.693943	-0.403860	37.947269	3.393944	-8.311876	-5.224303	0.056376	11.053391	-21.853493	6.616323	-5.167022	-2.133542	-10.076908	8.362327	-2.843307	4.691616	15.617284	-6.245893	8.530322	13.887590	9.748005	-1.790425	6.649438	12.174647	-2.434420	1.619038	22.654587	11.289389	18.891890	5.300620	10.453760	-9.495126	9.630745	16.528221	13.602453	-6.536820	-14.125494	-6.096985	30.815697	15.317539	-36.648331	31.546137	-6.884569	-19.762123	26.358391	-4.855298	18.599846	31.857386	-4.937028	-17.188511	-16.006138	15.935737	9.340064	-58.932178	
13.566029	38.117275	-2.223933	-8.435803	-0.573211	37.729584	3.251292	-7.892621	-5.218607	0.025028	10.944010	-21.730345	6.653777	-5.141154	-2.062290	-10.275654	8.055030	-2.833351	4.755813	16.534266	-6.280453	8.598247	14.643579	8.768586	-1.820184	6.530825	11.993146	-3.106321	1.184781	21.444607	10.590387	19.391808	5.445223	10.149172	-9.432740	10.108981	15.309855	13.495485	-6.532424	-14.561997	-6.717967	28.626415	15.998570	-34.711807	33.094448	-6.167250	-20.422550	26.209118	-5.599510	18.123016	31.031517	-5.033926	-16.423218	-16.935738	15.885728	9.503839	-58.891346	
13.635840	38.102043	-2.278095	-7.440200	-1.247023	36.991070	2.768091	-6.355083	-5.512611	-0.130090	10.583029	-21.044577	6.735552	-5.050745	-1.750443	-10.971473	7.182748	-2.687376	5.073769	19.547272	-6.051709	8.468874	14.880260	7.939140	-1.900128	6.698311	10.650707	-4.026710	1.202883	21.688658	7.624836	18.589048	2.482416	9.452510	-8.967471	11.596133	12.051392	12.812085	-7.234394	-15.055542	-7.141391	28.060022	13.028858	-31.813229	32.085167	-5.198691	-22.371376	25.786013	-6.795001	17.478312	28.112198	-5.321507	-14.398534	-18.779308	15.975042	10.204559	-59.230595	
13.662635	38.096260	-2.306239	-7.084706	-1.523166	36.715569	2.588718	-5.799303	-5.665093	-0.178680	10.475841	-20.732353	6.777723	-5.010722	-1.626027	-11.144415	6.897389	-2.662017	5.099627	20.605698	-5.875818	8.724982	15.948413	6.690714	-1.986425	6.795479	10.159292	-4.410299	1.003992	21.459799	6.821404	18.301844	1.745956	9.144713	-8.742634	12.005869	11.235230	12.391453	-7.539383	-15.265995	-7.402931	27.401024	12.550990	-30.789055	32.053761	-5.060003	-22.744057	25.283285	-7.278199	17.127954	27.860218	-5.415667	-13.924314	-19.165186	16.065092	10.597948	-59.614807	
13.700500	38.078957	-2.393444	-6.078885	-2.167221	35.739346	2.129948	-4.352668	-5.990992	-0.521015	10.096583	-19.833282	6.927278	-4.807209	-1.191226	-11.761913	5.771668	-2.624696	4.933321	23.809805	-5.826231	8.681291	16.395134	6.392005	-2.366764	6.924729	9.038827	-6.045566	0.176458	20.191448	5.817271	17.298626	-0.785964	7.524367	-8.502295	12.616042	9.770293	11.260381	-8.070415	-15.906698	-8.247055	24.985815	11.081722	-28.295330	30.614172	-4.181764	-23.405277	25.196684	-8.393143	16.417330	26.356556	-6.406615	-12.702804	-19.979401	17.063232	12.092702	-61.308769	
13.719051	38.074829	-2.443464	-5.755063	-2.349193	35.382103	1.958093	-3.882438	-6.084621	-0.674145	9.865911	-19.492884	7.006553	-4.657754	-1.099288	-12.049865	5.391355	-2.578540	4.911610	24.834681	-5.975478	8.723288	17.435589	5.619097	-2.363750	6.635636	8.064650	-6.923545	-0.344456	19.036375	5.702531	17.435492	-0.443571	6.932702	-8.654577	12.609408	9.482032	10.972672	-8.205962	-16.341911	-8.760894	23.266361	11.623492	-27.140720	31.686460	-5.691175	-22.585251	23.756927	-7.885278	14.576777	26.316511	-7.614103	-13.731673	-18.992828	18.095709	14.643637	-65.494225	
13.728347	38.050293	-2.512054	-4.694475	-2.952859	34.303528	1.425507	-2.416123	-6.337579	-0.944191	9.411179	-18.201168	7.045431	-4.520849	-1.049381	-12.937715	4.453527	-2.474515	4.931272	27.733532	-6.208635	8.219809	17.849545	5.755729	-2.747866	7.036060	7.790617	-7.614488	-0.847685	17.789139	4.825887	15.525022	-4.896995	5.508400	-9.338441	12.126918	9.331819	10.053195	-8.635459	-16.762705	-9.259822	21.646341	8.624109	-26.038265	28.706774	-6.128309	-22.190987	22.565056	-9.692982	12.793838	24.559795	-6.648564	-11.958425	-20.403471	17.036322	14.468530	-64.050385	
13.739844	38.044113	-2.566815	-4.323862	-3.190039	33.975471	1.238420	-1.894088	-6.422094	-1.100926	9.174882	-17.837919	7.098050	-4.367546	-0.990287	-13.184680	4.258777	-2.533297	4.863691	28.566917	-6.166666	8.303580	18.864767	4.683045	-2.826213	7.077097	7.374647	-7.933911	-1.038975	17.198853	4.702640	14.848215	-5.897147	5.001509	-9.642848	11.710474	9.582875	9.674759	-8.775940	-16.944292	-9.505216	20.905241	8.056022	-25.600681	28.245325	-8.493742	-20.936314	20.453312	-9.150937	10.305012	24.429541	-6.350273	-9.931125	-21.252106	17.015453	13.398788	-63.552574	
13.675516	38.020821	-2.638486	-3.178877	-3.911561	32.909889	0.818509	-0.418367	-6.640792	-1.522503	8.775298	-16.565878	7.104266	-4.205597	-0.888109	-13.839259	3.817888	-2.767474	4.539999	30.753973	-5.904568	7.971323	19.474087	4.294539	-3.284325	7.164668	6.235157	-8.409060	-1.621025	15.823306	4.733116	12.785585	-9.658005	3.665235	-11.173810	10.309265	10.838423	8.659209	-9.084814	-17.147308	-10.302669	18.920736	6.395329	-24.398947	26.434544	-7.146894	-21.177929	21.294781	-14.170961	10.090227	21.112955	-5.935368	-8.290828	-22.736000	16.230375	13.784684	-60.685795	
13.644855	38.018291	-2.667672	-2.820938	-4.196248	32.473034	0.737592	0.112579	-6.668870	-1.694859	8.590876	-16.203711	7.113492	-4.111960	-0.757729	-14.012747	3.731962	-2.774679	4.419265	31.401676	-5.803843	7.918889	19.814131	3.868761	-3.409955	7.251108	5.962626	-8.488127	-1.793313	15.292525	4.833682	12.104165	-10.787654	2.633823	-16.174704	3.717722	11.548074	13.530899	-4.271177	-17.188457	-10.563863	18.363077	5.830688	-24.040628	25.714409	-9.312743	-20.040367	18.893141	-18.006943	8.798310	19.433199	-5.744780	-8.384065	-24.204912	15.427789	14.655307	-58.971794	
13.553271	37.999081	-2.713871	-1.791951	-5.086578	31.108763	0.433929	1.658972	-6.833195	-1.997393	8.266245	-14.779915	7.050718	-4.078738	-0.564742	-14.411777	3.510905	-2.580807	4.027632	33.217609	-5.757480	7.465167	20.625183	2.800402	-3.830264	7.553838	5.403269	-8.526694	-2.395725	13.690073	5.721065	10.183095	-13.891535	2.216928	-17.152431	4.748773	12.941540	10.046228	-7.916251	-17.184849	-11.135913	16.707438	4.052829	-23.206718	23.588226	-7.933725	-20.518410	19.914297	-22.403486	7.790716	17.228210	-5.454531	-7.409177	-23.625494	15.168148	14.710934	-58.280727	
